- 
http://www.Speed.Cd
 
http://www.Speed.Cd       the fast  and The Hottest Private Tracker on the net

Please Seed back to make the speed Faster!!
 ............ NFO .............
-General
Unique ID                                : 177096625073401217231966779582264885492 (0x853B91BF78C9E6098FCB620BC2DBC0F4)
Complete name                            : E:UploadsSons.of.Anarchy.S05E10.720p.WEB-DL.DD5.1.H.264-TBSons.of.Anarchy.S05E10.Crucifixed.720p.WEB-DL.DD5.1.H.264-TB.mkv
Format                                   : Matroska
Format version                           : Version 2
File size                                : 1.94 GiB
Duration                                 : 1h 0mn
Overall bit rate                         : 4 585 Kbps
Movie name                               : Sons of Anarchy S05E10 by TeddyBlue
Encoded date                             : UTC 2012-11-14 22:45:40
Writing application                      : mkvmerge v5.8.0 ('No Sleep / Pillow') built on Sep  2 2012 15:37:04
Writing library                          : libebml v1.2.3 + libmatroska v1.3.0

Video
ID                                       : 1
Format                                   : AVC
Format/Info                              : Advanced Video Codec
Format profile                           : High@L3.1
Format settings, CABAC                   : No
Format settings, ReFrames                : 2 frames
Format settings, GOP                     : N=1
Muxing mode                              : Header stripping
Codec ID                                 : V_MPEG4/ISO/AVC
Duration                                 : 1h 0mn
Bit rate                                 : 4 110 Kbps
Width                                    : 1 280 pixels
Height                                   : 718 pixels
Display aspect ratio                     : 16:9
Frame rate mode                          : Constant
Frame rate                               : 23.976 fps
Color space                              : YUV
Chroma subsampling                       : 4:2:0
Bit depth                                : 8 bits
Scan type                                : Progressive
Bits/(Pixel*Frame)                       : 0.187
Stream size                              : 1.74 GiB (90%)
Language                                 : English
Default                                  : Yes
Forced                                   : No
Color primaries                          : BT.709
Transfer characteristics                 : BT.709
Matrix coefficients                      : BT.709

Audio
ID                                       : 2
Format                                   : AC-3
Format/Info                              : Audio Coding 3
Mode extension                           : CM (complete main)
Format settings, Endianness              : Big
Muxing mode                              : Header stripping
Codec ID                                 : A_AC3
Duration                                 : 1h 0mn
Bit rate mode                            : Constant
Bit rate                                 : 384 Kbps
Channel(s)                               : 6 channels
Channel positions                        : Front: L C R, Side: L R, LFE
Sampling rate                            : 48.0 KHz
Bit depth                                : 16 bits
Compression mode                         : Lossy
Stream size                              : 167 MiB (8%)
Language                                 : English
Default                                  : Yes
Forced                                   : No